<mxfile host="app.diagrams.net" modified="2023-06-11T09:58:46.323Z" agent="Mozilla/5.0 (Windows NT 10.0; Win64; x64) AppleWebKit/537.36 (KHTML, like Gecko) Chrome/114.0.0.0 Safari/537.36" version="21.3.8" etag="3lr7NU9PDpc6xGkq14xs" type="github">
  <diagram name="Trang-1" id="7ccG5ut5qVYFnNnI4lnt">
    <mxGraphModel>
      <root>
        <mxCell id="0" />
        <mxCell id="1" parent="0" />
      </root>
    </mxGraphModel>
  </diagram>
</mxfile>
